<svg id="Livello_1" data-name="Livello 1" xmlns="http://www.w3.org/2000/svg" viewBox="0 0 1080 1080"><defs><style>.cls-1{fill:#f3d03e;}</style></defs><path class="cls-1" d="M403.34,867.91a13.66,13.66,0,0,1-8.69-24.21L597.5,676.64H444.32A13.66,13.66,0,0,1,433.2,655L554.38,485.38H499a13.67,13.67,0,0,1,0-27.33h82a13.66,13.66,0,0,1,11.12,21.61L470.88,649.32H635.59a13.67,13.67,0,0,1,8.69,24.21L412,864.79A13.61,13.61,0,0,1,403.34,867.91Z"/><path class="cls-1" d="M676.57,867.91H403.34a13.67,13.67,0,0,1-13.68-13.65,14.17,14.17,0,0,1,.31-2.91L526.59,222.91a13.66,13.66,0,0,1,26.72,0L689.93,851.35a13.66,13.66,0,0,1-13.36,16.56ZM420.3,840.59H659.63L540,290.12Z"/><path class="cls-1" d="M785.87,430.73a13.67,13.67,0,0,1-13.67-13.66v-41H307.7v41a13.66,13.66,0,1,1-27.32,0V362.42A13.66,13.66,0,0,1,294,348.76H785.87a13.66,13.66,0,0,1,13.66,13.66v54.65A13.67,13.67,0,0,1,785.87,430.73Z"/><path class="cls-1" d="M485.31,485.38a13.76,13.76,0,0,1-6.78-1.78L287.26,374.31a13.7,13.7,0,1,1,13.67-23.75l191.26,109.3a13.66,13.66,0,0,1-6.88,25.52Z"/><path class="cls-1" d="M594.6,485.38a13.66,13.66,0,0,1-6.8-25.55L779.06,350.54a13.7,13.7,0,1,1,13.67,23.74L601.46,483.58A13.94,13.94,0,0,1,594.6,485.38Z"/><path class="cls-1" d="M676.57,867.91H403.34a13.67,13.67,0,0,1-13.65-13.68,14,14,0,0,1,.31-2.88L526.62,222.91a13.66,13.66,0,0,1,26.7,0L689.93,851.35a13.66,13.66,0,0,1-13.36,16.56ZM420.28,840.59H659.63L540,290.12Z"/><path class="cls-1" d="M403.34,867.91a13.66,13.66,0,0,1-8.66-24.21L597.5,676.64H444.32A13.66,13.66,0,0,1,433.2,655L554.38,485.38H499a13.67,13.67,0,0,1,0-27.33h82a13.67,13.67,0,0,1,11.12,21.62L470.88,649.32H635.59a13.66,13.66,0,0,1,8.66,24.21L412,864.79A13.52,13.52,0,0,1,403.34,867.91Z"/><path class="cls-1" d="M785.87,430.73a13.67,13.67,0,0,1-13.67-13.66v-41H307.7v41a13.66,13.66,0,1,1-27.32,0V362.42A13.66,13.66,0,0,1,294,348.76H785.87a13.66,13.66,0,0,1,13.66,13.66v54.65A13.67,13.67,0,0,1,785.87,430.73Z"/><path class="cls-1" d="M485.31,485.38a13.76,13.76,0,0,1-6.78-1.78L287.26,374.31a13.7,13.7,0,1,1,13.67-23.75l191.26,109.3a13.66,13.66,0,0,1-6.88,25.52Z"/><path class="cls-1" d="M594.6,485.38a13.66,13.66,0,0,1-6.77-25.55L779.09,350.54a13.69,13.69,0,1,1,13.66,23.74L601.49,483.57A13.65,13.65,0,0,1,594.6,485.38Z"/></svg>