<?xml version="1.0" encoding="UTF-8"?>
<svg width="31px" height="15px" viewBox="0 0 31 15" version="1.1" xmlns="http://www.w3.org/2000/svg" xmlns:xlink="http://www.w3.org/1999/xlink">
    <title>Group 6</title>
    <defs>
        <polygon id="path-1" points="0 0 31 0 31 15 0 15"></polygon>
    </defs>
    <g id="Page-1" stroke="none" stroke-width="1" fill="none" fill-rule="evenodd">
        <g id="Your-Privacy-Choices---Footer" transform="translate(-364.000000, -464.000000)">
            <g id="Group" transform="translate(0.000000, -0.000000)">
                <g id="Group-6" transform="translate(364.000000, 464.000000)">
                    <path d="M11.160321,4.18567539 L6.9297635,9.69989405 L4.82272283,7.23999129 C4.64338673,7.03056433 4.34238092,7.02019666 4.1503709,7.21510888 C3.95899458,7.41071227 3.94885543,7.73902186 4.12819153,7.94775763 L6.60277614,10.8354996 C6.69276103,10.9405587 6.81823293,11 6.94940809,11 C6.95384397,11 6.95827984,11 6.96271572,10.9993088 C7.09896045,10.9958529 7.22696713,10.9281175 7.31441724,10.8140731 L11.8890719,4.85127987 C12.0576351,4.63148525 12.0310199,4.30455802 11.8301381,4.12070465 C11.6286226,3.93685128 11.3288842,3.96657194 11.160321,4.18567539" id="Fill-1" fill="#87979D"></path>
                    <g id="Group-5">
                        <mask id="mask-2" fill="white">
                            <use xlink:href="#path-1"></use>
                        </mask>
                        <g id="Clip-4"></g>
                        <path d="M25.4396916,10.0011018 C25.6321285,10.1948038 25.6321285,10.5088257 25.4396916,10.7025276 C25.3438016,10.799048 25.2176996,10.8473082 25.0915977,10.8473082 C24.9654957,10.8473082 24.8393937,10.799048 24.7428469,10.7025276 L22.2582442,8.20092995 L19.7736415,10.7025276 C19.6777514,10.799048 19.5516495,10.8473082 19.4255475,10.8473082 C19.2994455,10.8473082 19.1733436,10.799048 19.0767968,10.7025276 C18.8850167,10.5088257 18.8850167,10.1948038 19.0767968,10.0011018 L21.5620563,7.50016527 L19.0767968,4.99856762 C18.8850167,4.80486569 18.8850167,4.49150488 19.0767968,4.29780295 C19.2692336,4.10410102 19.5812046,4.10410102 19.7736415,4.29780295 L22.2582442,6.79873951 L24.7428469,4.29780295 C24.9352838,4.10410102 25.2472548,4.10410102 25.4396916,4.29780295 C25.6321285,4.49150488 25.6321285,4.80486569 25.4396916,4.99856762 L22.9550889,7.50016527 L25.4396916,10.0011018 Z M14.9962161,7.50016527 L13.6110649,14.0086824 L7.45439927,14.0086824 C3.88742137,14.0086824 0.985105901,11.0899315 0.985105901,7.50347077 C0.985105901,5.77469755 1.65962004,4.14046145 2.88254636,2.90288459 C4.11401083,1.66993543 5.73691682,0.991648119 7.45439927,0.991648119 L16.3813673,0.991648119 L14.9962161,7.50016527 Z M23.5521029,0 L17.600353,0 L16.5928508,0 L7.45439927,0 C5.47551796,0 3.60434874,0.781418718 2.18635845,2.20211992 C0.776249526,3.62810992 -6.56781053e-05,5.51091915 -6.56781053e-05,7.50347077 C-6.56781053e-05,11.6373212 3.34426344,15.0003305 7.45439927,15.0003305 L13.3995814,15.0003305 L14.4077403,15.0003305 L23.5521029,15.0003305 C25.5349249,15.0003305 27.403467,14.2182507 28.8135759,12.7988717 C30.2236848,11.3788316 31,9.49866678 31,7.50347077 C31,3.36565372 27.6589548,0 23.5521029,0 L23.5521029,0 Z" id="Fill-3" fill="#87979D" mask="url(#mask-2)"></path>
                    </g>
                </g>
            </g>
        </g>
    </g>
</svg>