<svg id="Livello_1" data-name="Livello 1" xmlns="http://www.w3.org/2000/svg" viewBox="0 0 1080 1080"><defs><style>.cls-1{fill:#f3d03e;}</style></defs><path class="cls-1" d="M540,865.78a325.78,325.78,0,1,1,230.36-95.42A323.65,323.65,0,0,1,540,865.78Zm0-624.56a298.78,298.78,0,1,0,211.27,87.51A296.82,296.82,0,0,0,540,241.22Z"/><path class="cls-1" d="M553,429.38c37.78,0,64,16.65,82.93,40l-21.14,13.13c-13.44-17.29-36.18-29.46-61.79-29.46-46.75,0-82.29,35.86-82.29,86.77,0,50.59,35.54,87.09,82.29,87.09,25.61,0,46.74-12.49,57.31-23V560.33H537V536.64h99.9V613.8c-19.85,22.1-49,36.82-83.89,36.82-60.84,0-109.83-44.5-109.83-110.78S492.13,429.38,553,429.38Z"/></svg>