<svg xmlns="http://www.w3.org/2000/svg" viewBox="0 0 1080 1080"><defs><style>.cls-1{fill:#f3d03e;}</style></defs><g id="Modalità_Isolamento" data-name="Modalità Isolamento"><path class="cls-1" d="M337.94,746.3H295.27A10.67,10.67,0,0,0,284.6,757v64a10.67,10.67,0,0,0,10.67,10.66h42.67A10.66,10.66,0,0,0,348.6,821V757A10.67,10.67,0,0,0,337.94,746.3Zm-10.67,64H305.94V767.64h21.33Z"/><path class="cls-1" d="M423.27,746.3H380.6A10.67,10.67,0,0,0,369.94,757v64a10.66,10.66,0,0,0,10.66,10.66h42.67A10.67,10.67,0,0,0,433.94,821V757A10.67,10.67,0,0,0,423.27,746.3Zm-10.67,64H391.27V767.64H412.6Z"/><path class="cls-1" d="M508.6,746.3H465.94A10.67,10.67,0,0,0,455.27,757v64a10.66,10.66,0,0,0,10.67,10.66H508.6A10.67,10.67,0,0,0,519.27,821V757A10.67,10.67,0,0,0,508.6,746.3Zm-10.67,64H476.6V767.64h21.33Z"/><path class="cls-1" d="M849.57,623.91H819.78l-20.45-295a13.5,13.5,0,0,0-13.47-12.57H724.15a13.49,13.49,0,0,0-13.46,12.49L688.51,623.91H668V554.3a13.48,13.48,0,0,0-8.49-12.53L642.63,535l-9.69-145.91c15.51,10.9,28.89,16.26,40.44,16.26a34.56,34.56,0,0,0,4.35-.27c10.27-1.3,18.63-7.08,24.19-16.7s6.37-19.74,2.37-29.28h0c-7.45-17.79-31.63-32.29-73.85-44.28a46.35,46.35,0,0,0-19.17-32.3c10.89-42.88,10.48-71.27-1.24-86.7-6.26-8.26-15.45-12.62-26.57-12.62s-20.32,4.37-26.59,12.64c-11.78,15.55-12.11,44.22-1,87.58a46.66,46.66,0,0,0-17.93,31c-43.1,12.06-67.75,26.68-75.31,44.66-4,9.56-3.2,19.7,2.36,29.32s13.9,15.38,24.14,16.7a34.88,34.88,0,0,0,4.37.27h0c12.25,0,26.56-6,43.28-18.29l-7.31,102.73-83-33.17a13.54,13.54,0,0,0-10.09,0l-211,85.6a13.52,13.52,0,0,0-8.43,12.51V883.27a13.5,13.5,0,0,0,13.5,13.5H849.57a13.5,13.5,0,0,0,13.5-13.5V637.41A13.5,13.5,0,0,0,849.57,623.91ZM736.67,343.33h36.59l19.45,280.58H715.58ZM584.16,300.26A20.21,20.21,0,1,1,564,320.46,20.23,20.23,0,0,1,584.16,300.26Zm2-26.37a45.43,45.43,0,0,0-5.47.09c-6.09-24.89-9.74-53-2.81-62.16h0c.58-.76,1.65-2.18,5.53-2.18s4.95,1.42,5.53,2.18C593.61,217.92,595.18,237.4,586.2,273.89Zm36.73,72.43a45.14,45.14,0,0,0,3-5.26c24,7.11,49.59,17.88,54,28.28.36.88,1.05,2.51-.89,5.87h0c-1.94,3.36-3.7,3.58-4.64,3.7A10.25,10.25,0,0,1,673,379C661.45,379,640.38,362.89,622.93,346.32Zm-78.08-.84c-27.12,26-44.77,34.39-52.36,33.43-.94-.12-2.69-.35-4.63-3.7s-1.25-5-.88-5.88c3-7.07,19.07-18.17,55.19-28.64A45.79,45.79,0,0,0,544.85,345.48Zm20.72,17.7a46.41,46.41,0,0,0,36.92.14l1.79,1.72,10.56,158.89-59-23.59Zm99.29,506.59H598.29V714.61h66.57Zm171.21,0H691.86V701.11a13.5,13.5,0,0,0-13.5-13.5H584.79a13.51,13.51,0,0,0-13.5,13.5V869.77H243.93V563.88l197.56-80.14L641,563.45v74a13.49,13.49,0,0,0,13.5,13.5h181.6Z"/></g></svg>