<svg xmlns="http://www.w3.org/2000/svg" viewBox="0 0 1080 1080"><defs><style>.cls-1{fill:#f3d03e;}</style></defs><g id="Modalità_Isolamento" data-name="Modalità Isolamento"><path class="cls-1" d="M993.13,432.18h-95V387.81a13.5,13.5,0,0,0-13.5-13.5H713a13.5,13.5,0,0,0-13.5,13.5v44.37H639.3V387.81a13.5,13.5,0,0,0-13.5-13.5H454.2a13.5,13.5,0,0,0-13.5,13.5v44.37H365.9V387.81a13.5,13.5,0,0,0-13.5-13.5H180.8a13.5,13.5,0,0,0-13.5,13.5v44.37H86.87a13.5,13.5,0,1,0,0,27H167.3v45.43a13.5,13.5,0,0,0,13.5,13.5h72V547.9A47.3,47.3,0,0,0,230.76,624a47.34,47.34,0,1,0,71.76,0,47.3,47.3,0,0,0-22.69-76.3V518.11H352.4a13.5,13.5,0,0,0,13.5-13.5V459.18h74.8v45.43a13.5,13.5,0,0,0,13.5,13.5h72.3v33.17a47.29,47.29,0,0,0-22.37,76.21,47.34,47.34,0,1,0,71.76,0,47.3,47.3,0,0,0-22.39-76.21V518.11h72.3a13.5,13.5,0,0,0,13.5-13.5V459.18h60.2v45.43a13.5,13.5,0,0,0,13.5,13.5h72.3V551.3a47.3,47.3,0,0,0-22.38,76.21,47.34,47.34,0,1,0,71.76,0,47.29,47.29,0,0,0-22.38-76.2v-33.2h72.3a13.5,13.5,0,0,0,13.5-13.5V459.18h95a13.5,13.5,0,0,0,0-27Zm-726.49,243a20.32,20.32,0,0,1-12.5-36.35,47.07,47.07,0,0,0,25,0,20.32,20.32,0,0,1-12.5,36.35Zm20.34-82a20.33,20.33,0,0,1-7.84,16,47.07,47.07,0,0,0-25,0,20.33,20.33,0,1,1,32.84-16ZM338.9,491.11H194.3v-89.8H338.9ZM540,678.66a20.32,20.32,0,0,1-12.51-36.35,47.11,47.11,0,0,0,25,0A20.32,20.32,0,0,1,540,678.66Zm20.34-82a20.33,20.33,0,0,1-7.84,16,47.11,47.11,0,0,0-25,0,20.33,20.33,0,1,1,32.85-16ZM612.3,491.11H467.7v-89.8H612.3ZM798.8,678.69a20.32,20.32,0,0,1-12.5-36.36,47.07,47.07,0,0,0,25,0,20.32,20.32,0,0,1-12.5,36.36Zm20.34-82a20.31,20.31,0,0,1-7.84,16,47.07,47.07,0,0,0-25,0,20.33,20.33,0,1,1,32.84-16Zm52-105.57H726.5v-89.8H871.1Z"/></g></svg>