<svg xmlns="http://www.w3.org/2000/svg" viewBox="0 0 147.65 17.97"><defs><style>.cls-1{fill:#415364;}.cls-2{fill:#f5ce3e;}</style></defs><g id="Layer_2" data-name="Layer 2"><g id="testi"><polygon class="cls-1" points="14.32 15.18 9.75 10.69 9.75 17.97 17.72 17.97 17.72 15.18 14.32 15.18"/><path class="cls-1" d="M0,.24v7H9.74l5.53,5.46,0,0h2.41V.24ZM8.86,6h0L4.11,1.54h9.5Z"/><rect class="cls-1" y="9.63" width="7.31" height="8.33"/><polygon class="cls-2" points="8.86 1.55 4.11 1.54 8.86 6 8.86 6 8.86 6 8.86 6 8.86 6 13.61 1.54 8.86 1.55"/><path class="cls-1" d="M28.06,14.29h2.28v.47h-1.7v.91h1.67v.46H28.64v1h1.7v.47H28.06Z"/><path class="cls-1" d="M33.53,15.19v2.43h-.59V14.29h.6l1.71,2.36V14.29h.58v3.33h-.56Z"/><path class="cls-1" d="M38.54,14.29h2.29v.47h-1.7v.91h1.66v.46H39.13v1h1.7v.47H38.54Z"/><path class="cls-1" d="M44.59,16.38H44v1.24h-.58V14.29h1.46a1.14,1.14,0,0,1,.57.13.93.93,0,0,1,.39.37,1.08,1.08,0,0,1,.13.54,1,1,0,0,1-.23.67,1,1,0,0,1-.56.31L46,17.62h-.68Zm.63-1.47a.58.58,0,0,0-.41-.15H44v1.15h.8a.58.58,0,0,0,.41-.16.63.63,0,0,0,0-.84Z"/><path class="cls-1" d="M48.65,15.05a1.52,1.52,0,0,1,.63-.6,1.78,1.78,0,0,1,.89-.22,1.73,1.73,0,0,1,.78.17,1.61,1.61,0,0,1,.56.48l-.48.27a.89.89,0,0,0-.37-.32.92.92,0,0,0-.49-.13,1.07,1.07,0,0,0-.59.16,1.11,1.11,0,0,0-.41.45,1.46,1.46,0,0,0,0,1.29,1.11,1.11,0,0,0,.41.45,1.07,1.07,0,0,0,.59.17.89.89,0,0,0,.65-.26,1.36,1.36,0,0,0,.32-.66H50v-.47h1.82a2.32,2.32,0,0,1-.2,1,1.45,1.45,0,0,1-.57.65,1.71,1.71,0,0,1-.89.23,1.76,1.76,0,0,1-.85-.22,1.65,1.65,0,0,1-.62-.61,1.68,1.68,0,0,1-.23-.9A1.71,1.71,0,0,1,48.65,15.05Z"/><path class="cls-1" d="M55.16,16.24l-1.29-1.95h.67l.91,1.43.92-1.43H57l-1.3,1.95v1.38h-.58Z"/><path class="cls-1" d="M62.69,14.29H65v.47h-1.7v.91h1.66v.46H63.27v1.49h-.58Z"/><path class="cls-1" d="M67.56,15.07a1.65,1.65,0,0,1,.61-.62,1.87,1.87,0,0,1,1.76,0,1.65,1.65,0,0,1,.61.62,1.89,1.89,0,0,1,.21.89,1.82,1.82,0,0,1-.21.88,1.58,1.58,0,0,1-.61.62,1.8,1.8,0,0,1-1.76,0,1.58,1.58,0,0,1-.61-.62,1.82,1.82,0,0,1-.22-.88A1.89,1.89,0,0,1,67.56,15.07Zm2.46.24a1.07,1.07,0,0,0-.39-.45,1.13,1.13,0,0,0-1.16,0,1.07,1.07,0,0,0-.39.45,1.56,1.56,0,0,0,0,1.29,1.07,1.07,0,0,0,.39.45,1.07,1.07,0,0,0,1.16,0A1.07,1.07,0,0,0,70,16.6a1.67,1.67,0,0,0,0-1.29Z"/><path class="cls-1" d="M74.48,16.38h-.57v1.24h-.59V14.29h1.47a1.2,1.2,0,0,1,.57.13,1,1,0,0,1,.38.37,1.08,1.08,0,0,1,.13.54.93.93,0,0,1-.23.67,1,1,0,0,1-.56.31l.82,1.31h-.68Zm.64-1.47a.6.6,0,0,0-.42-.15h-.79v1.15h.79a.61.61,0,0,0,.42-.16.66.66,0,0,0,0-.84Z"/><path class="cls-1" d="M83.86,17H82.28l-.25.64h-.64l1.31-3.33h.73l1.31,3.33H84.1Zm-1.43-.47h1.26l-.62-1.68Z"/><path class="cls-1" d="M90.5,16.76a1.92,1.92,0,0,0,.46.33,1.5,1.5,0,0,0,.6.13.73.73,0,0,0,.5-.15.44.44,0,0,0,.17-.34.3.3,0,0,0-.1-.24.66.66,0,0,0-.25-.15,3.41,3.41,0,0,0-.41-.13,3.72,3.72,0,0,1-.61-.19,1.06,1.06,0,0,1-.41-.29.77.77,0,0,1-.16-.52.87.87,0,0,1,.15-.5.94.94,0,0,1,.43-.35,1.39,1.39,0,0,1,.63-.13,1.84,1.84,0,0,1,1.25.42l-.34.43A1.07,1.07,0,0,0,92,14.8a1.34,1.34,0,0,0-.52-.1.65.65,0,0,0-.41.12.4.4,0,0,0-.16.32.27.27,0,0,0,.1.21.57.57,0,0,0,.24.14,3.8,3.8,0,0,0,.4.13,3.87,3.87,0,0,1,.62.19,1.12,1.12,0,0,1,.41.3.8.8,0,0,1,.18.54,1,1,0,0,1-.15.53.93.93,0,0,1-.43.37,1.66,1.66,0,0,1-.71.14,2.38,2.38,0,0,1-.79-.13,1.82,1.82,0,0,1-.57-.35Z"/><path class="cls-1" d="M97.43,17H95.85l-.25.64H95l1.32-3.33H97l1.31,3.33h-.64ZM96,16.51h1.26l-.62-1.68Z"/><path class="cls-1" d="M100.68,14.29H103v.47h-1.69v.91h1.66v.46h-1.66v1.49h-.59Z"/><path class="cls-1" d="M105.49,14.29h2.28v.47h-1.69v.91h1.66v.46h-1.66v1h1.69v.47h-2.28Z"/><path class="cls-1" d="M111.54,16.38H111v1.24h-.59V14.29h1.47a1.14,1.14,0,0,1,.57.13.9.9,0,0,1,.38.37,1.09,1.09,0,0,1,.14.54,1,1,0,0,1-.23.67,1,1,0,0,1-.56.31l.81,1.31h-.67Zm.63-1.47a.58.58,0,0,0-.41-.15H111v1.15h.8a.58.58,0,0,0,.41-.16.63.63,0,0,0,0-.84Z"/><path class="cls-1" d="M118.8,14.29h2.28v.47h-1.7v.91h1.67v.46h-1.67v1.49h-.58Z"/><path class="cls-1" d="M123.61,14.29h.59v2a.92.92,0,0,0,.22.66.82.82,0,0,0,.63.24.79.79,0,0,0,.63-.24.92.92,0,0,0,.22-.66v-2h.59v2a1.37,1.37,0,0,1-.36,1,1.46,1.46,0,0,1-1.08.38,1.42,1.42,0,0,1-1.07-.38,1.33,1.33,0,0,1-.37-1Z"/><path class="cls-1" d="M130,14.76h-1v-.47h2.6v.47h-1v2.86H130Z"/><path class="cls-1" d="M134.09,14.29h.59v2a.92.92,0,0,0,.22.66.82.82,0,0,0,.63.24.79.79,0,0,0,.63-.24.92.92,0,0,0,.22-.66v-2H137v2a1.37,1.37,0,0,1-.36,1,1.46,1.46,0,0,1-1.08.38,1.42,1.42,0,0,1-1.07-.38,1.33,1.33,0,0,1-.37-1Z"/><path class="cls-1" d="M140.85,16.38h-.58v1.24h-.59V14.29h1.47a1.17,1.17,0,0,1,.57.13.9.9,0,0,1,.38.37,1.09,1.09,0,0,1,.14.54A1,1,0,0,1,142,16a1,1,0,0,1-.56.31l.81,1.31h-.67Zm.63-1.47a.59.59,0,0,0-.41-.15h-.8v1.15h.8a.6.6,0,0,0,.41-.16.63.63,0,0,0,0-.84Z"/><path class="cls-1" d="M144.82,14.29h2.29v.47h-1.7v.91h1.66v.46h-1.66v1h1.7v.47h-2.29Z"/><polygon class="cls-1" points="30.73 10.02 30.73 1.44 27.7 1.44 27.7 0.21 35.17 0.21 35.17 1.44 32.12 1.44 32.12 10.02 30.73 10.02"/><polygon class="cls-1" points="48.7 10.02 48.7 5.6 42.84 5.6 42.84 10.02 41.45 10.02 41.45 0.21 42.84 0.21 42.84 4.37 48.7 4.37 48.7 0.21 50.09 0.21 50.09 10.02 48.7 10.02"/><polygon class="cls-1" points="60.1 10.02 60.1 5.87 56.01 0.21 57.63 0.21 60.79 4.67 63.89 0.21 65.52 0.21 61.49 5.87 61.49 10.02 60.1 10.02"/><polygon class="cls-1" points="73.59 10.02 73.59 1.44 70.56 1.44 70.56 0.21 78.03 0.21 78.03 1.44 74.98 1.44 74.98 10.02 73.59 10.02"/><path class="cls-1" d="M90.32,3.21a1.73,1.73,0,0,0-1.93-1.77H85.7V5h2.69a1.71,1.71,0,0,0,1.93-1.78M90.24,10l-2.56-3.8h-2V10H84.31V.21h4.2a2.94,2.94,0,0,1,3.23,3A2.76,2.76,0,0,1,89.1,6.12L91.88,10Z"/><path class="cls-1" d="M106.68,5.12a3.64,3.64,0,1,0-7.27,0,3.64,3.64,0,1,0,7.27,0m-8.7,0a5.07,5.07,0,1,1,10.13,0A5.07,5.07,0,1,1,98,5.12"/><polygon class="cls-1" points="121.92 10.02 116.13 2.39 116.13 10.02 114.74 10.02 114.74 0.21 116.2 0.21 121.92 7.7 121.92 0.21 123.33 0.21 123.33 10.02 121.92 10.02"/><rect class="cls-1" x="130.46" y="0.21" width="1.39" height="9.81"/><path class="cls-1" d="M138.5,5.12A5,5,0,0,1,143.73,0a4.66,4.66,0,0,1,3.9,2l-1.12.63a3.35,3.35,0,0,0-2.78-1.41,3.73,3.73,0,0,0-3.8,3.89A3.76,3.76,0,0,0,143.73,9a3.37,3.37,0,0,0,2.78-1.4l1.14.62a4.68,4.68,0,0,1-3.92,2,5,5,0,0,1-5.23-5.11"/></g></g></svg>