<svg id="Livello_1" data-name="Livello 1" xmlns="http://www.w3.org/2000/svg" viewBox="0 0 1080 1080"><defs><style>.cls-1{fill:#f3d03e;}</style></defs><path class="cls-1" d="M958.59,675.83l-74.67-74.66a39,39,0,0,0-65.63,19.18,40,40,0,0,0-34.47,10.79,38.89,38.89,0,0,0-10.48,19.16,39,39,0,0,0-42.54,22.55l-41.72-41.71c-14.68-14.67-40.44-14.67-55.13,0a39,39,0,0,0,0,55.14l106,106-50.5,7.22A47.28,47.28,0,0,0,649,846.06a27.51,27.51,0,0,0,27.48,27.48H870.29a86.78,86.78,0,0,0,61.8-25.63l26.5-26.49a103,103,0,0,0,0-145.59ZM768.22,813.46a12.5,12.5,0,0,0,7.06-21.21L651.63,668.61a14,14,0,1,1,19.79-19.79l93.67,93.67a12.5,12.5,0,0,0,17.67-17.68l-26.22-26.22a14,14,0,0,1,0-19.8c5.18-5.18,14.62-5.18,19.8,0L802.56,705a12.5,12.5,0,0,0,17.67-17.68l-18.74-18.73a14,14,0,0,1,19.8-19.81L840,667.54a12.5,12.5,0,0,0,17.67-17.68l-11.24-11.24a14,14,0,0,1,0-19.79,14.46,14.46,0,0,1,19.8,0L941,693.51a78,78,0,0,1,0,110.26l-26.49,26.49a62.13,62.13,0,0,1-44.17,18.29H676.51a2.5,2.5,0,0,1-2.49-2.49A22.17,22.17,0,0,1,693,824.21Z"/><path class="cls-1" d="M628.81,430.82,496.07,373.93a13,13,0,0,0-10.22,0L353.11,430.82a13,13,0,0,0-7.87,11.93V603.93a13,13,0,0,0,7.87,11.93l132.74,56.89,3.11,1.31.19-.39a13,13,0,0,0,6.92-.92l132.74-56.89a13,13,0,0,0,7.87-11.93V442.75A13,13,0,0,0,628.81,430.82ZM371.21,595.37V462.44L478,508.19V641.13ZM590.74,442.75,491,485.51l-99.78-42.76L491,400Zm20,19.69V595.37L503.94,641.13V508.19Z"/><path class="cls-1" d="M890.66,610.73h-27v-246a36.11,36.11,0,0,0-36.07-36.06h-179v-27h179a63.14,63.14,0,0,1,63.07,63.06Z"/><path class="cls-1" d="M728.26,778.28H154.33a63.14,63.14,0,0,1-63.07-63.06V364.78a63.14,63.14,0,0,1,63.07-63.06h169.8v27H154.33a36.11,36.11,0,0,0-36.07,36.06V715.22a36.11,36.11,0,0,0,36.07,36.06H728.26Z"/><path class="cls-1" d="M136.89,660a13.5,13.5,0,1,1,0-27,21.45,21.45,0,0,0,21.42-21.43V468.42A21.45,21.45,0,0,0,136.89,447a13.5,13.5,0,1,1,0-27,48.48,48.48,0,0,1,48.42,48.43V611.58A48.48,48.48,0,0,1,136.89,660Z"/><path class="cls-1" d="M329.44,404.14a13.49,13.49,0,0,1-13.5-13.5V292.21a13.5,13.5,0,0,1,27,0v98.43A13.5,13.5,0,0,1,329.44,404.14Z"/><path class="cls-1" d="M382.52,383.92a13.5,13.5,0,0,1-13.5-13.5V271a13.5,13.5,0,0,1,27,0v99.45A13.49,13.49,0,0,1,382.52,383.92Z"/><path class="cls-1" d="M438.27,364.11a13.5,13.5,0,0,1-13.5-13.5V237.85a13.5,13.5,0,0,1,27,0V350.61A13.51,13.51,0,0,1,438.27,364.11Z"/><path class="cls-1" d="M490,346.85a13.49,13.49,0,0,1-13.5-13.5V273.51a13.5,13.5,0,0,1,27,0v59.84A13.5,13.5,0,0,1,490,346.85Z"/><circle class="cls-1" cx="329.29" cy="249.8" r="13.66"/><circle class="cls-1" cx="380.39" cy="226.58" r="13.66"/><path class="cls-1" d="M651.41,404.14a13.49,13.49,0,0,1-13.5-13.5V292.21a13.5,13.5,0,1,1,27,0v98.43A13.5,13.5,0,0,1,651.41,404.14Z"/><path class="cls-1" d="M598.32,383.92a13.49,13.49,0,0,1-13.5-13.5V271a13.5,13.5,0,0,1,27,0v99.45A13.5,13.5,0,0,1,598.32,383.92Z"/><path class="cls-1" d="M542.58,364.11a13.5,13.5,0,0,1-13.5-13.5V237.85a13.5,13.5,0,0,1,27,0V350.61A13.51,13.51,0,0,1,542.58,364.11Z"/><circle class="cls-1" cx="651.55" cy="249.8" r="13.66"/><circle class="cls-1" cx="600.46" cy="226.58" r="13.66"/><circle class="cls-1" cx="488.7" cy="226.58" r="13.66"/></svg>