<svg id="Livello_1" data-name="Livello 1" xmlns="http://www.w3.org/2000/svg" viewBox="0 0 1080 1080"><defs><style>.cls-1{fill:#f3d03e;}.cls-2{fill:#f1ce3e;}</style></defs><path class="cls-1" d="M540,871.81a75.89,75.89,0,1,1,75.89-75.89A76,76,0,0,1,540,871.81ZM540,747a48.89,48.89,0,1,0,48.89,48.88A48.94,48.94,0,0,0,540,747Z"/><path class="cls-2" d="M531.41,304.84h0l-63.13,63.44a12.14,12.14,0,0,0,17.21,17.13l42.39-42.6V599.94a12.14,12.14,0,0,0,24.28,0V342.82l42.39,42.6a12.14,12.14,0,1,0,17.21-17.13l-63.13-63.44h0A12.14,12.14,0,0,0,531.41,304.84Z"/><path class="cls-1" d="M540.79,708.83a13.49,13.49,0,0,1-13.5-13.5v-5.75a13.5,13.5,0,1,1,27,0v5.75A13.5,13.5,0,0,1,540.79,708.83Zm0-45.75a13.49,13.49,0,0,1-13.5-13.5v-10a13.5,13.5,0,1,1,27,0v10A13.5,13.5,0,0,1,540.79,663.08Z"/><path class="cls-1" d="M698.6,279A224.3,224.3,0,1,0,436.41,636.63a6.1,6.1,0,0,0,8.22-2.59l6.92-13.22a6.1,6.1,0,0,0-2.6-8.23c-63.64-33.25-107-100.19-106.24-177,1.08-109,91.24-196.87,200.18-195.29,107.47,1.55,194.41,89.45,194.41,197.27,0,75-42,140.31-103.78,173.68a6.1,6.1,0,0,0-2.38,8.46l7.6,12.89a6.1,6.1,0,0,0,8.16,2.27A224.4,224.4,0,0,0,698.6,279Z"/></svg>