<svg id="Livello_1" data-name="Livello 1" xmlns="http://www.w3.org/2000/svg" viewBox="0 0 1080 1080"><defs><style>.cls-1,.cls-2{fill:none;stroke:#f3d03e;stroke-miterlimit:10;stroke-width:27px;}.cls-2{stroke-linecap:round;}.cls-3{fill:#f3d03e;}</style></defs><path class="cls-1" d="M828.39,633.54h28.06a45.61,45.61,0,0,1,45.6,45.6V811a45.61,45.61,0,0,1-45.6,45.61H248.89A45.6,45.6,0,0,1,203.29,811V679.14a45.6,45.6,0,0,1,45.6-45.6H746.11"/><rect class="cls-1" x="269.62" y="697.89" width="224.33" height="77.02" rx="20.71"/><circle class="cls-1" cx="658.01" cy="738.72" r="36.65"/><circle class="cls-1" cx="777.8" cy="738.72" r="36.65"/><path class="cls-1" d="M828.39,646.9V511.7c0-16.77-10.84-30.37-24.21-30.37H773c-13.38,0-24.22,13.6-24.22,30.37V646.9"/><line class="cls-2" x1="786.59" y1="355.11" x2="786.59" y2="478.36"/><path class="cls-3" d="M895.67,260.32c-29.24-29.46-67.12-45.68-106.66-45.68s-77.44,16.22-106.67,45.68a13.42,13.42,0,0,0,19,18.91c24.16-24.35,55.27-37.75,87.62-37.75s63.45,13.4,87.61,37.75a13.42,13.42,0,1,0,19-18.91Z"/><path class="cls-3" d="M788.89,284.34H788c-20.66,0-43.29,9.71-59.07,25.34a13.42,13.42,0,1,0,18.89,19.06c10.77-10.67,26.55-17.56,40.19-17.56h.87c13.63,0,29.4,6.89,40.17,17.56a13.36,13.36,0,0,0,9.45,3.89h.06A13.41,13.41,0,0,0,848,309.68C832.19,294.05,809.55,284.34,788.89,284.34Z"/></svg>