<svg id="Livello_1" data-name="Livello 1" xmlns="http://www.w3.org/2000/svg" viewBox="0 0 1080 1080"><defs><style>.cls-1{fill:#f3d03e;}</style></defs><path class="cls-1" d="M637.51,479.23a97.65,97.65,0,0,0-84-96.57V185.33a13.5,13.5,0,0,0-27,0V382.66a97.45,97.45,0,0,0-61.63,158.66A97.45,97.45,0,0,0,526.5,700V894.67a13.5,13.5,0,1,0,27,0V700a97.45,97.45,0,0,0,61.63-158.66A97.08,97.08,0,0,0,637.51,479.23ZM540,408.72a70.45,70.45,0,0,1,55.17,114.34,97.27,97.27,0,0,0-110.34,0A70.45,70.45,0,0,1,540,408.72Zm33.37,132.6a70.41,70.41,0,0,1-66.74,0,70.34,70.34,0,0,1,66.74,0ZM540,673.91a70.44,70.44,0,0,1-55.17-114.33,97.31,97.31,0,0,0,110.34,0A70.44,70.44,0,0,1,540,673.91Z"/></svg>